<svg width="58" height="64" viewBox="0 0 58 64" fill="none" xmlns="http://www.w3.org/2000/svg">
<path d="M19.1067 62L23.8632 57.2435V13.0164H6.50616L2 17.3557H19.1067V62Z" fill="#9B0909"/>
<path d="M29.9549 51.0684L34.5445 46.3119V17.3557H39.3492L39.2663 13.0164H29.5376L29.9549 51.0684Z" fill="#9B0909"/>
<path d="M44.3078 17.3557V13.0164H39.2663L39.3492 17.3557H44.3078Z" fill="#9B0909"/>
<path d="M39.8016 41.0547L44.3078 36.3817V17.3557H39.3492L39.8016 41.0547Z" fill="#9B0909"/>
<path d="M57.4925 17.3557V13.0164H44.3078V17.3557H57.4925Z" fill="#9B0909"/>
<path d="M44.3078 1H17.5212L13.5992 6.09029H39.1341L39.2663 13.0164H44.3078V1Z" fill="#9B0909"/>
<path d="M49.4815 8.09302H57.4925V1H49.4815V8.09302Z" fill="#9B0909"/>
<path d="M39.3492 17.3557H34.5445V46.3119L29.9549 51.0684L29.5376 13.0164H39.2663M39.3492 17.3557L39.2663 13.0164M39.3492 17.3557L39.8016 41.0547L44.3078 36.3817V17.3557M39.3492 17.3557H44.3078M39.2663 13.0164L39.1341 6.09029H13.5992L17.5212 1H44.3078V13.0164M39.2663 13.0164H44.3078M44.3078 17.3557V13.0164M44.3078 17.3557H57.4925V13.0164H44.3078M19.1067 62L23.8632 57.2435V13.0164H6.50616L2 17.3557H19.1067V62ZM49.4815 8.09302H57.4925V1H49.4815V8.09302Z" stroke="#9B0909"/>
</svg>
